<?xml version="1.0" encoding="UTF-8"?>
<!DOCTYPE svg PUBLIC "-//W3C//DTD SVG 1.1//EN" "http://www.w3.org/Graphics/SVG/1.1/DTD/svg11.dtd">
<!-- Creator: CorelDRAW -->
<svg xmlns="http://www.w3.org/2000/svg" xml:space="preserve" width="2842px" height="1400px" style="shape-rendering:geometricPrecision; text-rendering:geometricPrecision; image-rendering:optimizeQuality; fill-rule:evenodd; clip-rule:evenodd"
viewBox="0 0 2842 1400.16"
 xmlns:xlink="http://www.w3.org/1999/xlink">
 <defs>
  <style type="text/css">
   <![CDATA[
    .fil1 {fill:#008488}
    .fil2 {fill:#564A9D}
    .fil4 {fill:#CF1E5B}
    .fil5 {fill:#ECF1F1}
    .fil0 {fill:#EF4822}
    .fil3 {fill:#FEBD10}
   ]]>
  </style>
 </defs>
 <g id="Ebene_x0020_1">
  <metadata id="CorelCorpID_0Corel-Layer"/>
  <g id="_81089008">
   <path id="_80576504" class="fil0" d="M1600.19 1400.16l70.8426 0c8.78489,-5.57428 81.4041,-26.2117 104.182,-37.5009 33.3075,-16.5055 56.4893,-33.7965 85.8561,-55.8278 45.0017,-33.7587 108.288,-102.254 138.636,-147.601l-32.8066 -21.6014c-59.8842,40.1008 -151.148,129.182 -245.862,129.182l-20.8359 0c-92.4262,0 -120.847,-106.911 -120.847,-204.191l0 -41.6706c0,-181.015 99.1038,-412.779 166.618,-529.296 59.8322,-103.261 229.226,-320.803 379.279,-320.803 58.4915,0 100.048,43.3126 119.524,84.6666 12.6145,26.7882 17.3678,47.3441 23.2055,80.9729 2.89758,16.6921 -0.67567,84.389 19.7905,84.389l16.6685 0c22.8629,0 25.0021,-98.8663 25.0021,-125.014 0,-74.1052 -19.9157,-150.586 -49.09,-196.772 -16.3153,-25.8314 -34.5797,-44.2198 -58.534,-62.3128 -35.5766,-26.8697 -67.1477,-23.4051 -88.2316,-36.7827l-54.1729 0c-0.663858,0.421703 -68.5994,18.3884 -80.902,23.2775 -26.9488,10.708 -48.0092,22.3314 -71.647,36.6976 -41.0552,24.9525 -84.6052,64.3918 -121.412,95.2813 -73.7283,61.877 -135.896,155.95 -191.07,238.146 -89.5582,133.419 -205.881,436.549 -205.881,656.719l0 16.6685c0,89.3975 11.4911,161.715 41.5809,220.95 14.8458,29.2251 33.0074,50.765 57.406,71.7746 38.0395,32.7546 69.2101,25.7416 92.7014,40.6477z"/>
   <path id="_42817112" class="fil1" d="M1941.89 433.383c64.5017,0 135.831,57.1012 174.305,81.9143l129.898 -61.0784c-19.7563,-26.963 -118.495,-50.0055 -170.854,-50.0055 -43.8323,0 -111.064,9.80076 -133.349,29.1696z"/>
   <path id="_77733768" class="fil1" d="M1988.2 579.009l95.3781 -49.781c-17.7151,-26.4539 -109.878,-67.1547 -153.741,-71.0552l58.3628 120.836z"/>
   <polygon id="_81148912" class="fil1" points="1870.06,636.739 1963.89,595.357 1908.56,475.055 1896.35,474.429 "/>
   <path id="_81287680" class="fil1" d="M2375.28 587.568c-26.0783,-49.2849 -59.2877,-94.8891 -108.346,-120.847l-125.015 70.8414c33.6961,50.3185 55.0931,57.4532 87.5182,125.03l145.843 -75.0242z"/>
   <path id="_81287960" class="fil1" d="M1725.2 716.75l120.847 -62.5077 0 -29.1696c0,-30.3721 3.42796,-57.3434 8.6455,-83.0318 4.63755,-22.8322 19.3322,-60.991 20.5252,-75.3195 -60.4666,40.4894 -147.885,154.287 -150.018,250.029z"/>
   <path id="_81085744" class="fil1" d="M2004.4 608.404c0,15.2947 56.0251,105.526 63.4764,135.273l136.547 -68.5994c-25.6554,-48.4852 -51.4962,-95.3179 -95.8447,-125.014 -13.0586,11.3505 -104.178,49.8685 -104.178,58.3403z"/>
   <path id="_81287400" class="fil2" d="M0 158.351l62.5077 4.16742c28.299,18.9507 45.8381,25.6625 45.8381,75.0088l0 700.081c0,69.2822 -39.7499,79.1762 -108.346,79.1762l0 62.5066 730.595 -0.236248 23.6603 -266.461 -66.6752 0c0,54.1717 -33.0606,115.012 -61.3891,142.801 -30.1323,29.5606 -97.5752,53.0543 -155.302,53.0543l-58.3403 0c-46.4677,0 -112.513,-18.4439 -112.513,-62.5066l0 -333.372 133.349 0c76.8586,0 95.8447,53.0519 95.8447,129.182l62.5066 0 0 -333.372 -62.5066 0c-7.58002,91.082 -33.9749,129.182 -133.349,129.182l-100.012 0 0 -370.877 108.346 0c258.832,0 202.531,175.02 237.529,175.02l50.0055 0 0.995786 -150.079 -5.1762 -96.7779 -462.541 5.1632 -37.5375 1.01823 -187.489 -5.18565 0 62.5066z"/>
   <path id="_81900256" class="fil1" d="M1880.31 668.545c-0.927274,77.8651 19.1054,95.273 33.1929,153.952l130.344 -65.0108 -65.8058 -139.213 -97.7312 50.2713z"/>
   <path id="_81087856" class="fil1" d="M2416.95 766.755c0,-59.7708 -6.59959,-127.589 -33.337,-158.351 -6.10938,16.8752 -114.191,69.5739 -137.517,75.0088 2.96255,35.5991 33.337,78.2513 33.337,129.182l1.28755 23.3555 136.229 -69.1947z"/>
   <path id="_81085840" class="fil1" d="M1725.2 745.921c0,68.4553 5.92629,114.424 29.1696,158.351l131.603 -66.1932 -41.1013 -149.025 3.88628 -4.4202 -123.558 61.2875z"/>
   <path id="_81085936" class="fil1" d="M2084.5 768.534l61.6064 135.785 108.322 -54.2201c0,-68.0915 -22.4589,-103.327 -34.3647,-151.996l-135.564 70.4315z"/>
   <path id="_81286448" class="fil1" d="M1929.57 846.288c2.55266,32.4829 69.9047,106.86 95.9699,121.068l97.0437 -51.3297 -64.8879 -134.34 -128.126 64.6021z"/>
   <path id="_81728536" class="fil1" d="M1766.87 929.275c9.71453,36.3834 74.632,101.062 104.178,120.847l120.847 -66.674c-5.0628,-18.9625 -75.7636,-76.8598 -88.2954,-122.423l-136.73 68.2497z"/>
   <path id="_81286896" class="fil1" d="M2163.46 926.54l57.6328 123.583c3.11493,-37.4276 33.337,-86.5129 33.337,-137.517l-0.706382 -30.6024 -90.2634 44.5363z"/>
   <path id="_81087184" class="fil1" d="M2051.13 985.193c8.37972,32.959 105.728,60.6048 141.769,76.972l-55.3978 -120.885 -86.3712 43.9126z"/>
   <path id="_78110368" class="fil1" d="M2246.1 1062.62c68.942,-16.0613 168.838,-172.061 170.854,-262.53l-133.349 66.674c0,89.6964 -22.0042,129.325 -37.5044,195.856z"/>
   <path id="_81087664" class="fil3" d="M2842 450.053l0 -4.16742 -183.355 0 0 -216.692c-15.1045,10.1138 -43.928,50.1827 -61.4718,67.7099 -19.0109,18.9932 -47.2331,46.5704 -67.7099,61.4718 -30.1571,21.9439 -116.911,100.632 -150.018,108.346l0 62.5066 104.178 0 0 358.376c0,108.597 54.7694,191.688 162.519,191.688l8.33484 0c70.8107,0 130.903,-76.0129 179.433,-108.491l-29.4153 -54.0276c-27.4249,18.3648 -51.2434,54.1729 -95.8447,54.1729 -29.6929,0 -50.0055,-27.0859 -50.0055,-58.3403l0 -383.378 145.85 0c17.6312,0 25.6258,-62.0813 37.5044,-79.175z"/>
   <path id="_81286280" class="fil4" d="M954.279 575.067c0,-20.5134 65.5801,-41.6718 91.6773,-41.6718l4.16742 0c133.192,0 191.689,160.939 191.689,300.035l0 8.33366c0,87.6351 -54.8746,183.355 -141.684,183.355l-37.5044 0c-26.9311,0 -108.346,-26.3618 -108.346,-45.8381l0 -404.214zm-254.196 12.5011c17.213,-4.01031 33.7859,-12.5011 54.1729,-12.5011 15.9302,0 25.0021,12.3369 25.0021,29.1696l0 650.076c0,16.1558 -22.8995,33.337 -41.6706,33.337l-33.3382 0 0 62.5077 104.122 -5.16675 125.072 0.99933 104.131 5.00374 0.0484309 -63.3441 -41.6718 0c-20.9517,0 -41.6718,-20.7202 -41.6718,-41.6718l0 -170.852 99.6826 14.7407 46.1676 -2.23963c183.534,0 312.536,-157.266 312.536,-350.041 0,-165.958 -98.4364,-295.868 -262.531,-295.868l-20.8347 0c-61.8923,0 -133.642,36.4448 -175.021,58.3403l0 -66.6752c-42.4396,22.4566 -197.459,86.2471 -254.196,87.5111l0 66.674z"/>
   <path id="_81088432" class="fil5" d="M2137.5 941.28l55.3978 120.885c-36.0408,-16.3673 -133.389,-44.013 -141.769,-76.972l86.3712 -43.9126zm116.226 -59.277l0.706382 30.6024c0,51.0036 -30.2221,100.089 -33.337,137.517l-57.6328 -123.583 90.2634 -44.5363zm-196.026 -100.317l64.8879 134.34 -97.0437 51.3297c-26.0653,-14.208 -93.4173,-88.5848 -95.9699,-121.068l128.126 -64.6021zm162.367 -83.5834c11.9057,48.6695 34.3647,83.9047 34.3647,151.996l-108.322 54.2201 -61.6064 -135.785 135.564 -70.4315zm-242.021 -79.8295l65.8058 139.213 -130.344 65.0108c-14.0875,-58.6793 -34.1201,-76.0873 -33.1929,-153.952l97.7312 -50.2713zm26.357 -9.86927c0,-8.47186 91.1198,-46.9898 104.178,-58.3403 44.3485,29.6964 70.1893,76.5291 95.8447,125.014l-136.547 68.5994c-7.45127,-29.7472 -63.4764,-119.979 -63.4764,-135.273zm-108.048 -133.975l12.2034 0.626058 55.3317 120.302 -93.8272 41.3812 26.2921 -162.31zm33.4835 -16.2562c43.863,3.90046 136.026,44.6013 153.741,71.0552l-95.3781 49.781 -58.3628 -120.836zm-54.617 8.54864c-1.19305,14.3285 -15.8877,52.4873 -20.5252,75.3195 -5.21754,25.6885 -8.6455,52.6597 -8.6455,83.0318l0 29.1696 -120.847 62.5077 0 29.1707 123.558 -61.2875 -3.88628 4.4202 41.1013 149.025 -131.603 66.1932 12.5023 25.0033 136.73 -68.2497c12.5318,45.5628 83.2326,103.46 88.2954,122.423l-120.847 66.674 25.0033 12.5011c29.0503,-6.76733 102.353,-58.3403 120.847,-58.3403 2.00811,0 69.4263,40.9855 81.938,47.2437 29.9031,14.9569 61.2379,25.6223 88.9156,40.2673l58.3403 -29.1707c15.5002,-66.531 37.5044,-106.159 37.5044,-195.856l133.349 -66.674 0 -33.3382 -136.229 69.1947 -1.28755 -23.3555c0,-50.9304 -30.3744,-93.5826 -33.337,-129.182 23.326,-5.43489 131.407,-58.1336 137.517,-75.0088l-8.33484 -20.8359 -145.843 75.0242c-32.4251,-67.5764 -53.8221,-74.7111 -87.5182,-125.03l125.015 -70.8414 -20.8359 -12.5023 -129.898 61.0784c-38.4742,-24.8132 -109.803,-81.9143 -174.305,-81.9143l-66.674 33.3382z"/>
   <path id="_81088624" class="fil1" d="M1896.06 1062.62c16.9992,23.2019 110.503,50.0067 154.184,50.0067l41.6718 0c24.1233,0 82.3231,-12.2566 95.8447,-20.8359 -27.6777,-14.645 -59.0124,-25.3105 -88.9156,-40.2673 -12.5117,-6.25822 -79.9299,-47.2437 -81.938,-47.2437 -18.4935,0 -91.7966,51.573 -120.847,58.3403z"/>
  </g>
 </g>
</svg>
